G04 ================== begin FILE IDENTIFICATION RECORD ==================*
G04 Layout Name:  C:/USERS/ASUS/DESKTOP/P1/allegro/P1PCB.brd*
G04 Film Name:    FAB*
G04 File Format:  Gerber RS274X*
G04 File Origin:  Cadence Allegro 17.2-S025*
G04 Origin Date:  Fri Dec 29 19:04:44 2023*
G04 *
G04 Layer:  MANUFACTURING/XSECTION_CHART*
G04 Layer:  MANUFACTURING/NCLEGEND-1-2*
G04 Layer:  MANUFACTURING/NCDRILL_LEGEND*
G04 Layer:  MANUFACTURING/NCDRILL_FIGURE*
G04 Layer:  DRAWING FORMAT/DRAWING_ORIGIN*
G04 Layer:  BOARD GEOMETRY/DIMENSION*
G04 Layer:  BOARD GEOMETRY/DESIGN_OUTLINE*
G04 *
G04 Offset:    (0.00 0.00)*
G04 Mirror:    No*
G04 Mode:      Positive*
G04 Rotation:  0*
G04 FullContactRelief:  No*
G04 UndefLineWidth:     10.00*
G04 ================== end FILE IDENTIFICATION RECORD ====================*
%FSLAX25Y25*MOIN*%
%IR0*IPPOS*OFA0.00000B0.00000*MIA0B0*SFA1.00000B1.00000*%
%AMMACRO10*
1,1,.01,.025,0.0*
20,1,.01,.025,0.0,-.025,0.0,0.0*
1,1,.01,-.025,0.0*
1,1,.01,0.0,.025*
20,1,.01,0.0,.025,0.0,-.025,0.0*
1,1,.01,0.0,-.025*
%
%ADD10MACRO10*%
%AMMACRO11*
1,1,.01,.025,0.0*
20,1,.01,.025,0.0,.02462,-.004341,0.0*
1,1,.01,.02462,-.004341*
20,1,.01,.02462,-.004341,.023492,-.008551,0.0*
1,1,.01,.023492,-.008551*
20,1,.01,.023492,-.008551,.021651,-.0125,0.0*
1,1,.01,.021651,-.0125*
20,1,.01,.021651,-.0125,.019151,-.01607,0.0*
1,1,.01,.019151,-.01607*
20,1,.01,.019151,-.01607,.01607,-.019151,0.0*
1,1,.01,.01607,-.019151*
20,1,.01,.01607,-.019151,.0125,-.021651,0.0*
1,1,.01,.0125,-.021651*
20,1,.01,.0125,-.021651,.008551,-.023492,0.0*
1,1,.01,.008551,-.023492*
20,1,.01,.008551,-.023492,.004341,-.02462,0.0*
1,1,.01,.004341,-.02462*
20,1,.01,.004341,-.02462,0.0,-.025,0.0*
1,1,.01,0.0,-.025*
20,1,.01,0.0,-.025,-.004341,-.02462,0.0*
1,1,.01,-.004341,-.02462*
20,1,.01,-.004341,-.02462,-.008551,-.023492,0.0*
1,1,.01,-.008551,-.023492*
20,1,.01,-.008551,-.023492,-.0125,-.021651,0.0*
1,1,.01,-.0125,-.021651*
20,1,.01,-.0125,-.021651,-.01607,-.019151,0.0*
1,1,.01,-.01607,-.019151*
20,1,.01,-.01607,-.019151,-.019151,-.01607,0.0*
1,1,.01,-.019151,-.01607*
20,1,.01,-.019151,-.01607,-.021651,-.0125,0.0*
1,1,.01,-.021651,-.0125*
20,1,.01,-.021651,-.0125,-.023492,-.008551,0.0*
1,1,.01,-.023492,-.008551*
20,1,.01,-.023492,-.008551,-.02462,-.004341,0.0*
1,1,.01,-.02462,-.004341*
20,1,.01,-.02462,-.004341,-.025,0.0,0.0*
1,1,.01,-.025,0.0*
20,1,.01,-.025,0.0,-.02462,.004341,0.0*
1,1,.01,-.02462,.004341*
20,1,.01,-.02462,.004341,-.023492,.008551,0.0*
1,1,.01,-.023492,.008551*
20,1,.01,-.023492,.008551,-.021651,.0125,0.0*
1,1,.01,-.021651,.0125*
20,1,.01,-.021651,.0125,-.019151,.01607,0.0*
1,1,.01,-.019151,.01607*
20,1,.01,-.019151,.01607,-.01607,.019151,0.0*
1,1,.01,-.01607,.019151*
20,1,.01,-.01607,.019151,-.0125,.021651,0.0*
1,1,.01,-.0125,.021651*
20,1,.01,-.0125,.021651,-.008551,.023492,0.0*
1,1,.01,-.008551,.023492*
20,1,.01,-.008551,.023492,-.004341,.02462,0.0*
1,1,.01,-.004341,.02462*
20,1,.01,-.004341,.02462,0.0,.025,0.0*
1,1,.01,0.0,.025*
20,1,.01,0.0,.025,.004341,.02462,0.0*
1,1,.01,.004341,.02462*
20,1,.01,.004341,.02462,.008551,.023492,0.0*
1,1,.01,.008551,.023492*
20,1,.01,.008551,.023492,.0125,.021651,0.0*
1,1,.01,.0125,.021651*
20,1,.01,.0125,.021651,.01607,.019151,0.0*
1,1,.01,.01607,.019151*
20,1,.01,.01607,.019151,.019151,.01607,0.0*
1,1,.01,.019151,.01607*
20,1,.01,.019151,.01607,.021651,.0125,0.0*
1,1,.01,.021651,.0125*
20,1,.01,.021651,.0125,.023492,.008551,0.0*
1,1,.01,.023492,.008551*
20,1,.01,.023492,.008551,.02462,.004341,0.0*
1,1,.01,.02462,.004341*
20,1,.01,.02462,.004341,.025,0.0,0.0*
1,1,.01,.025,0.0*
1,1,.01,.0125,0.0*
20,1,.01,.0125,0.0,-.0125,0.0,0.0*
1,1,.01,-.0125,0.0*
1,1,.01,0.0,.0125*
20,1,.01,0.0,.0125,0.0,-.0125,0.0*
1,1,.01,0.0,-.0125*
%
%ADD11MACRO11*%
%ADD12C,.01*%
%ADD13C,.006*%
G75*
%LPD*%
G75*
G36*
G01X-156600Y-45501D02*
Y-701D01*
X-106600D01*
Y-45501D01*
X-156600D01*
G37*
G36*
G01Y111299D02*
Y156099D01*
X-106600D01*
Y111299D01*
X-156600D01*
G37*
G54D10*
X0Y0D03*
G54D11*
X70000Y40000D03*
X72000Y62000D03*
X131000Y33000D03*
X103000Y81000D03*
X350950Y38500D03*
G54D12*
G01X-156600Y-701D02*
Y111299D01*
X-106600D01*
Y-701D01*
X-156600D01*
G01X0Y0D02*
Y160000D01*
X160000D01*
Y0D01*
X0D01*
G01X306000Y26000D02*
Y126000D01*
X802000D01*
Y26000D01*
X306000D01*
G01Y76000D02*
X802000D01*
G01X306000Y51000D02*
X802000D01*
G01X306000Y101000D02*
X802000D01*
G01X317005Y57250D02*
Y69750D01*
X322895D01*
G01X320725Y63708D02*
X317005D01*
G01X330490Y69750D02*
X334210D01*
G01X332350D02*
Y57250D01*
G01X330490D02*
X334210D01*
G01X345680Y63500D02*
X348780D01*
Y59750D01*
X347850Y58500D01*
X346765Y57667D01*
X345215Y57250D01*
X343665Y57667D01*
X342580Y58500D01*
X341650Y59750D01*
X341030Y61208D01*
X340720Y62875D01*
Y64333D01*
X341030Y65583D01*
X341650Y67042D01*
X342580Y68292D01*
X343510Y69125D01*
X344750Y69750D01*
X345835D01*
X347075Y69333D01*
X348005Y68500D01*
G01X353740Y69750D02*
Y60792D01*
X354360Y58916D01*
X355600Y57667D01*
X357150Y57250D01*
X358700Y57667D01*
X359940Y58916D01*
X360560Y60792D01*
Y69750D01*
G01X366450Y57250D02*
Y69750D01*
X370325D01*
X371565Y69125D01*
X372340Y68292D01*
X372650Y66625D01*
X372340Y64958D01*
X371410Y63917D01*
X370325Y63292D01*
X366450D01*
G01X370325D02*
X372650Y57250D01*
G01X385050D02*
X378850D01*
Y69750D01*
X385050D01*
G01X382570Y63708D02*
X378850D01*
G01X395900Y76000D02*
Y26000D01*
G01X395590Y107250D02*
Y119750D01*
X398690D01*
X399930Y119125D01*
X400860Y118292D01*
X401635Y117042D01*
X402255Y115583D01*
X402410Y113500D01*
X402255Y111417D01*
X401635Y109958D01*
X400860Y108708D01*
X399930Y107875D01*
X398690Y107250D01*
X395590D01*
G01X408300D02*
Y119750D01*
X412175D01*
X413415Y119125D01*
X414190Y118292D01*
X414500Y116625D01*
X414190Y114958D01*
X413260Y113917D01*
X412175Y113292D01*
X408300D01*
G01X412175D02*
X414500Y107250D01*
G01X421940Y119750D02*
X425660D01*
G01X423800D02*
Y107250D01*
G01X421940D02*
X425660D01*
G01X433100Y119750D02*
Y107250D01*
X439300D01*
G01X445500Y119750D02*
Y107250D01*
X451700D01*
G01X476810Y118708D02*
X475880Y119333D01*
X474795Y119750D01*
X473555D01*
X472160Y119125D01*
X471075Y118083D01*
X470300Y116833D01*
X469680Y114750D01*
X469525Y112875D01*
X469835Y111000D01*
X470300Y109750D01*
X471230Y108500D01*
X472315Y107667D01*
X473400Y107250D01*
X474485D01*
X475570Y107667D01*
X476500Y108291D01*
X477275Y109125D01*
G01X482545Y107250D02*
Y119750D01*
G01X489055D02*
Y107250D01*
G01Y113500D02*
X482545D01*
G01X494325Y107250D02*
X498200Y119750D01*
X502075Y107250D01*
G01X500680Y111625D02*
X495720D01*
G01X507500Y107250D02*
Y119750D01*
X511375D01*
X512615Y119125D01*
X513390Y118292D01*
X513700Y116625D01*
X513390Y114958D01*
X512460Y113917D01*
X511375Y113292D01*
X507500D01*
G01X511375D02*
X513700Y107250D01*
G01X523000Y119750D02*
Y107250D01*
G01X519435Y119750D02*
X526565D01*
G01X535400Y106833D02*
X535090Y107042D01*
Y107458D01*
X535400Y107667D01*
X535710Y107458D01*
Y107042D01*
X535400Y106833D01*
G01Y112458D02*
X535090Y112667D01*
Y113083D01*
X535400Y113292D01*
X535710Y113083D01*
Y112667D01*
X535400Y112458D01*
G01X560200Y119750D02*
Y107250D01*
G01X556635Y119750D02*
X563765D01*
G01X572600Y107250D02*
X571360Y107458D01*
X570275Y108291D01*
X569345Y109542D01*
X568725Y111000D01*
X568415Y112667D01*
Y114333D01*
X568725Y116000D01*
X569345Y117458D01*
X570275Y118708D01*
X571360Y119542D01*
X572600Y119750D01*
X573840Y119542D01*
X574925Y118708D01*
X575855Y117458D01*
X576475Y116000D01*
X576785Y114333D01*
Y112667D01*
X576475Y111000D01*
X575855Y109542D01*
X574925Y108291D01*
X573840Y107458D01*
X572600Y107250D01*
G01X581900D02*
Y119750D01*
X585620D01*
X586860Y119125D01*
X587790Y117667D01*
X588100Y116000D01*
X587790Y114333D01*
X587015Y113083D01*
X585620Y112458D01*
X581900D01*
G01X609800Y119750D02*
Y107250D01*
G01X607630Y115583D02*
X611970D01*
G01X622200Y107250D02*
X621270Y107458D01*
X620340Y108291D01*
X619720Y109750D01*
X619410Y111417D01*
X619720Y113083D01*
X620340Y114542D01*
X621270Y115375D01*
X622200Y115583D01*
X623130Y115375D01*
X624060Y114542D01*
X624680Y113083D01*
X624835Y111417D01*
X624680Y109750D01*
X624060Y108291D01*
X623130Y107458D01*
X622200Y107250D01*
G01X648240Y113917D02*
X648860Y114542D01*
X649325Y115583D01*
X649635Y117042D01*
X649325Y118292D01*
X648705Y119125D01*
X647620Y119750D01*
X643435D01*
Y107250D01*
X648550D01*
X649635Y108083D01*
X650255Y109333D01*
X650565Y110792D01*
X650255Y112250D01*
X649325Y113500D01*
X648240Y113917D01*
X643435D01*
G01X659400Y107250D02*
X658160Y107458D01*
X657075Y108291D01*
X656145Y109542D01*
X655525Y111000D01*
X655215Y112667D01*
Y114333D01*
X655525Y116000D01*
X656145Y117458D01*
X657075Y118708D01*
X658160Y119542D01*
X659400Y119750D01*
X660640Y119542D01*
X661725Y118708D01*
X662655Y117458D01*
X663275Y116000D01*
X663585Y114333D01*
Y112667D01*
X663275Y111000D01*
X662655Y109542D01*
X661725Y108291D01*
X660640Y107458D01*
X659400Y107250D01*
G01X671800Y119750D02*
Y107250D01*
G01X668235Y119750D02*
X675365D01*
G01X684200D02*
Y107250D01*
G01X680635Y119750D02*
X687765D01*
G01X696600Y107250D02*
X695360Y107458D01*
X694275Y108291D01*
X693345Y109542D01*
X692725Y111000D01*
X692415Y112667D01*
Y114333D01*
X692725Y116000D01*
X693345Y117458D01*
X694275Y118708D01*
X695360Y119542D01*
X696600Y119750D01*
X697840Y119542D01*
X698925Y118708D01*
X699855Y117458D01*
X700475Y116000D01*
X700785Y114333D01*
Y112667D01*
X700475Y111000D01*
X699855Y109542D01*
X698925Y108291D01*
X697840Y107458D01*
X696600Y107250D01*
G01X704970D02*
Y119750D01*
X709000Y109333D01*
X713030Y119750D01*
Y107250D01*
G01X426125Y82250D02*
X430000Y94750D01*
X433875Y82250D01*
G01X432480Y86625D02*
X427520D01*
G01X439300Y94750D02*
Y82250D01*
X445500D01*
G01X451700Y94750D02*
Y82250D01*
X457900D01*
G01X476190Y94750D02*
Y85792D01*
X476810Y83916D01*
X478050Y82667D01*
X479600Y82250D01*
X481150Y82667D01*
X482390Y83916D01*
X483010Y85792D01*
Y94750D01*
G01X488435Y82250D02*
Y94750D01*
X495565Y82250D01*
Y94750D01*
G01X502540D02*
X506260D01*
G01X504400D02*
Y82250D01*
G01X502540D02*
X506260D01*
G01X516800Y94750D02*
Y82250D01*
G01X513235Y94750D02*
X520365D01*
G01X525945Y83916D02*
X527185Y82875D01*
X528580Y82250D01*
X529820D01*
X531060Y82875D01*
X531990Y83916D01*
X532455Y85375D01*
X532145Y86833D01*
X531370Y88083D01*
X529975Y88917D01*
X528115Y89333D01*
X527030Y90167D01*
X526565Y91625D01*
X526875Y93083D01*
X527650Y94125D01*
X528735Y94750D01*
X529820D01*
X530905Y94333D01*
X531835Y93292D01*
G01X550125Y82250D02*
X554000Y94750D01*
X557875Y82250D01*
G01X556480Y86625D02*
X551520D01*
G01X563300Y82250D02*
Y94750D01*
X567175D01*
X568415Y94125D01*
X569190Y93292D01*
X569500Y91625D01*
X569190Y89958D01*
X568260Y88917D01*
X567175Y88292D01*
X563300D01*
G01X567175D02*
X569500Y82250D01*
G01X581900D02*
X575700D01*
Y94750D01*
X581900D01*
G01X579420Y88708D02*
X575700D01*
G01X601740Y94750D02*
X605460D01*
G01X603600D02*
Y82250D01*
G01X601740D02*
X605460D01*
G01X612435D02*
Y94750D01*
X619565Y82250D01*
Y94750D01*
G01X636770Y82250D02*
Y94750D01*
X640800Y84333D01*
X644830Y94750D01*
Y82250D01*
G01X651340Y94750D02*
X655060D01*
G01X653200D02*
Y82250D01*
G01X651340D02*
X655060D01*
G01X662500Y94750D02*
Y82250D01*
X668700D01*
G01X674745Y83916D02*
X675985Y82875D01*
X677380Y82250D01*
X678620D01*
X679860Y82875D01*
X680790Y83916D01*
X681255Y85375D01*
X680945Y86833D01*
X680170Y88083D01*
X678775Y88917D01*
X676915Y89333D01*
X675830Y90167D01*
X675365Y91625D01*
X675675Y93083D01*
X676450Y94125D01*
X677535Y94750D01*
X678620D01*
X679705Y94333D01*
X680635Y93292D01*
G01X419305Y57250D02*
Y69750D01*
X425195D01*
G01X423025Y63708D02*
X419305D01*
G01X432790Y69750D02*
X436510D01*
G01X434650D02*
Y57250D01*
G01X432790D02*
X436510D01*
G01X443485D02*
Y69750D01*
X450615Y57250D01*
Y69750D01*
G01X457590D02*
X461310D01*
G01X459450D02*
Y57250D01*
G01X457590D02*
X461310D01*
G01X468595Y58916D02*
X469835Y57875D01*
X471230Y57250D01*
X472470D01*
X473710Y57875D01*
X474640Y58916D01*
X475105Y60375D01*
X474795Y61833D01*
X474020Y63083D01*
X472625Y63917D01*
X470765Y64333D01*
X469680Y65167D01*
X469215Y66625D01*
X469525Y68083D01*
X470300Y69125D01*
X471385Y69750D01*
X472470D01*
X473555Y69333D01*
X474485Y68292D01*
G01X480995Y57250D02*
Y69750D01*
G01X487505D02*
Y57250D01*
G01Y63500D02*
X480995D01*
G01X499750Y57250D02*
X493550D01*
Y69750D01*
X499750D01*
G01X497270Y63708D02*
X493550D01*
G01X505640Y57250D02*
Y69750D01*
X508740D01*
X509980Y69125D01*
X510910Y68292D01*
X511685Y67042D01*
X512305Y65583D01*
X512460Y63500D01*
X512305Y61417D01*
X511685Y59958D01*
X510910Y58708D01*
X509980Y57875D01*
X508740Y57250D01*
X505640D01*
G01X516800Y53083D02*
X526100D01*
G01X530595Y58916D02*
X531835Y57875D01*
X533230Y57250D01*
X534470D01*
X535710Y57875D01*
X536640Y58916D01*
X537105Y60375D01*
X536795Y61833D01*
X536020Y63083D01*
X534625Y63917D01*
X532765Y64333D01*
X531680Y65167D01*
X531215Y66625D01*
X531525Y68083D01*
X532300Y69125D01*
X533385Y69750D01*
X534470D01*
X535555Y69333D01*
X536485Y68292D01*
G01X544390Y69750D02*
X548110D01*
G01X546250D02*
Y57250D01*
G01X544390D02*
X548110D01*
G01X555705Y69750D02*
X561595D01*
X555705Y57250D01*
X561595D01*
G01X574150D02*
X567950D01*
Y69750D01*
X574150D01*
G01X571670Y63708D02*
X567950D01*
G01X478050Y32250D02*
Y44750D01*
X476190Y42250D01*
G01Y32250D02*
X479910D01*
G01X487505Y37458D02*
X488590Y38917D01*
X489520Y39750D01*
X490760Y40167D01*
X491845Y39750D01*
X492620Y38917D01*
X493240Y37667D01*
X493395Y36208D01*
X493240Y34958D01*
X492620Y33708D01*
X491690Y32667D01*
X490605Y32250D01*
X489365Y32667D01*
X488280Y33916D01*
X487660Y35792D01*
X487505Y37875D01*
X487815Y40583D01*
X488280Y42042D01*
X489055Y43500D01*
X490140Y44542D01*
X491225Y44750D01*
X492310Y44333D01*
X493085Y43292D01*
G01X502850Y31833D02*
X502540Y32042D01*
Y32458D01*
X502850Y32667D01*
X503160Y32458D01*
Y32042D01*
X502850Y31833D01*
G01X515250Y44750D02*
X514010Y44333D01*
X513080Y43292D01*
X512460Y42042D01*
X511995Y40375D01*
X511840Y38500D01*
X511995Y36625D01*
X512460Y34958D01*
X513080Y33708D01*
X514010Y32667D01*
X515250Y32250D01*
X516490Y32667D01*
X517420Y33708D01*
X518040Y34958D01*
X518505Y36625D01*
X518660Y38500D01*
X518505Y40375D01*
X518040Y42042D01*
X517420Y43292D01*
X516490Y44333D01*
X515250Y44750D01*
G01X597400Y76000D02*
Y26000D01*
G01X626850Y32250D02*
Y44750D01*
X630570D01*
X631810Y44125D01*
X632740Y42667D01*
X633050Y41000D01*
X632740Y39333D01*
X631965Y38083D01*
X630570Y37458D01*
X626850D01*
G01X639250Y44750D02*
Y32250D01*
X645450D01*
G01X650875D02*
X654750Y44750D01*
X658625Y32250D01*
G01X657230Y36625D02*
X652270D01*
G01X667150Y44750D02*
Y32250D01*
G01X663585Y44750D02*
X670715D01*
G01X682650Y32250D02*
X676450D01*
Y44750D01*
X682650D01*
G01X680170Y38708D02*
X676450D01*
G01X688540Y32250D02*
Y44750D01*
X691640D01*
X692880Y44125D01*
X693810Y43292D01*
X694585Y42042D01*
X695205Y40583D01*
X695360Y38500D01*
X695205Y36417D01*
X694585Y34958D01*
X693810Y33708D01*
X692880Y32875D01*
X691640Y32250D01*
X688540D01*
G01X626850Y57250D02*
Y69750D01*
X630570D01*
X631810Y69125D01*
X632740Y67667D01*
X633050Y66000D01*
X632740Y64333D01*
X631965Y63083D01*
X630570Y62458D01*
X626850D01*
G01X639250Y69750D02*
Y57250D01*
X645450D01*
G01X650875D02*
X654750Y69750D01*
X658625Y57250D01*
G01X657230Y61625D02*
X652270D01*
G01X667150Y69750D02*
Y57250D01*
G01X663585Y69750D02*
X670715D01*
G01X682650Y57250D02*
X676450D01*
Y69750D01*
X682650D01*
G01X680170Y63708D02*
X676450D01*
G01X688540Y57250D02*
Y69750D01*
X691640D01*
X692880Y69125D01*
X693810Y68292D01*
X694585Y67042D01*
X695205Y65583D01*
X695360Y63500D01*
X695205Y61417D01*
X694585Y59958D01*
X693810Y58708D01*
X692880Y57875D01*
X691640Y57250D01*
X688540D01*
G01X724500Y76000D02*
Y26000D01*
G01X765110Y32250D02*
Y44750D01*
X759375Y35792D01*
X767125D01*
G01X750850Y57250D02*
X749610Y57458D01*
X748525Y58291D01*
X747595Y59542D01*
X746975Y61000D01*
X746665Y62667D01*
Y64333D01*
X746975Y66000D01*
X747595Y67458D01*
X748525Y68708D01*
X749610Y69542D01*
X750850Y69750D01*
X752090Y69542D01*
X753175Y68708D01*
X754105Y67458D01*
X754725Y66000D01*
X755035Y64333D01*
Y62667D01*
X754725Y61000D01*
X754105Y59542D01*
X753175Y58291D01*
X752090Y57458D01*
X750850Y57250D01*
G01X752090Y60583D02*
X753950Y57250D01*
G01X763250Y69750D02*
Y57250D01*
G01X759685Y69750D02*
X766815D01*
G01X775650Y57250D02*
Y62875D01*
X772550Y69750D01*
G01X778750D02*
X775650Y62875D01*
G54D13*
G01X-164760Y-54667D02*
Y-50667D01*
X-164160D01*
X-163920Y-50867D01*
X-163740Y-51134D01*
X-163590Y-51534D01*
X-163470Y-52000D01*
X-163440Y-52667D01*
X-163470Y-53334D01*
X-163590Y-53800D01*
X-163740Y-54200D01*
X-163920Y-54467D01*
X-164160Y-54667D01*
X-164760D01*
G01X-160900D02*
X-162100D01*
Y-50667D01*
X-160900D01*
G01X-161380Y-52600D02*
X-162100D01*
G01X-159530Y-54134D02*
X-159290Y-54467D01*
X-159020Y-54667D01*
X-158780D01*
X-158540Y-54467D01*
X-158360Y-54134D01*
X-158270Y-53667D01*
X-158330Y-53200D01*
X-158480Y-52800D01*
X-158750Y-52534D01*
X-159110Y-52400D01*
X-159320Y-52134D01*
X-159410Y-51667D01*
X-159350Y-51200D01*
X-159200Y-50867D01*
X-158990Y-50667D01*
X-158780D01*
X-158570Y-50800D01*
X-158390Y-51134D01*
G01X-156660Y-50667D02*
X-155940D01*
G01X-156300D02*
Y-54667D01*
G01X-156660D02*
X-155940D01*
G01X-153520Y-52667D02*
X-152920D01*
Y-53867D01*
X-153100Y-54267D01*
X-153310Y-54534D01*
X-153610Y-54667D01*
X-153910Y-54534D01*
X-154120Y-54267D01*
X-154300Y-53867D01*
X-154420Y-53400D01*
X-154480Y-52867D01*
Y-52400D01*
X-154420Y-52000D01*
X-154300Y-51534D01*
X-154120Y-51134D01*
X-153940Y-50867D01*
X-153700Y-50667D01*
X-153490D01*
X-153250Y-50800D01*
X-153070Y-51067D01*
G01X-151790Y-54667D02*
Y-50667D01*
X-150410Y-54667D01*
Y-50667D01*
G01X-145240Y-51000D02*
X-145420Y-50800D01*
X-145630Y-50667D01*
X-145870D01*
X-146140Y-50867D01*
X-146350Y-51200D01*
X-146500Y-51600D01*
X-146620Y-52267D01*
X-146650Y-52867D01*
X-146590Y-53467D01*
X-146500Y-53867D01*
X-146320Y-54267D01*
X-146110Y-54534D01*
X-145900Y-54667D01*
X-145690D01*
X-145480Y-54534D01*
X-145300Y-54334D01*
X-145150Y-54067D01*
G01X-143900Y-54667D02*
Y-50667D01*
X-143150D01*
X-142910Y-50867D01*
X-142760Y-51134D01*
X-142700Y-51667D01*
X-142760Y-52200D01*
X-142940Y-52534D01*
X-143150Y-52734D01*
X-143900D01*
G01X-143150D02*
X-142700Y-54667D01*
G01X-140700D02*
X-140940Y-54600D01*
X-141150Y-54334D01*
X-141330Y-53934D01*
X-141450Y-53467D01*
X-141510Y-52934D01*
Y-52400D01*
X-141450Y-51867D01*
X-141330Y-51400D01*
X-141150Y-51000D01*
X-140940Y-50734D01*
X-140700Y-50667D01*
X-140460Y-50734D01*
X-140250Y-51000D01*
X-140070Y-51400D01*
X-139950Y-51867D01*
X-139890Y-52400D01*
Y-52934D01*
X-139950Y-53467D01*
X-140070Y-53934D01*
X-140250Y-54334D01*
X-140460Y-54600D01*
X-140700Y-54667D01*
G01X-138730Y-54134D02*
X-138490Y-54467D01*
X-138220Y-54667D01*
X-137980D01*
X-137740Y-54467D01*
X-137560Y-54134D01*
X-137470Y-53667D01*
X-137530Y-53200D01*
X-137680Y-52800D01*
X-137950Y-52534D01*
X-138310Y-52400D01*
X-138520Y-52134D01*
X-138610Y-51667D01*
X-138550Y-51200D01*
X-138400Y-50867D01*
X-138190Y-50667D01*
X-137980D01*
X-137770Y-50800D01*
X-137590Y-51134D01*
G01X-136130Y-54134D02*
X-135890Y-54467D01*
X-135620Y-54667D01*
X-135380D01*
X-135140Y-54467D01*
X-134960Y-54134D01*
X-134870Y-53667D01*
X-134930Y-53200D01*
X-135080Y-52800D01*
X-135350Y-52534D01*
X-135710Y-52400D01*
X-135920Y-52134D01*
X-136010Y-51667D01*
X-135950Y-51200D01*
X-135800Y-50867D01*
X-135590Y-50667D01*
X-135380D01*
X-135170Y-50800D01*
X-134990Y-51134D01*
G01X-130930Y-54134D02*
X-130690Y-54467D01*
X-130420Y-54667D01*
X-130180D01*
X-129940Y-54467D01*
X-129760Y-54134D01*
X-129670Y-53667D01*
X-129730Y-53200D01*
X-129880Y-52800D01*
X-130150Y-52534D01*
X-130510Y-52400D01*
X-130720Y-52134D01*
X-130810Y-51667D01*
X-130750Y-51200D01*
X-130600Y-50867D01*
X-130390Y-50667D01*
X-130180D01*
X-129970Y-50800D01*
X-129790Y-51134D01*
G01X-127100Y-54667D02*
X-128300D01*
Y-50667D01*
X-127100D01*
G01X-127580Y-52600D02*
X-128300D01*
G01X-124440Y-51000D02*
X-124620Y-50800D01*
X-124830Y-50667D01*
X-125070D01*
X-125340Y-50867D01*
X-125550Y-51200D01*
X-125700Y-51600D01*
X-125820Y-52267D01*
X-125850Y-52867D01*
X-125790Y-53467D01*
X-125700Y-53867D01*
X-125520Y-54267D01*
X-125310Y-54534D01*
X-125100Y-54667D01*
X-124890D01*
X-124680Y-54534D01*
X-124500Y-54334D01*
X-124350Y-54067D01*
G01X-122500Y-50667D02*
Y-54667D01*
G01X-123190Y-50667D02*
X-121810D01*
G01X-120260D02*
X-119540D01*
G01X-119900D02*
Y-54667D01*
G01X-120260D02*
X-119540D01*
G01X-117300D02*
X-117540Y-54600D01*
X-117750Y-54334D01*
X-117930Y-53934D01*
X-118050Y-53467D01*
X-118110Y-52934D01*
Y-52400D01*
X-118050Y-51867D01*
X-117930Y-51400D01*
X-117750Y-51000D01*
X-117540Y-50734D01*
X-117300Y-50667D01*
X-117060Y-50734D01*
X-116850Y-51000D01*
X-116670Y-51400D01*
X-116550Y-51867D01*
X-116490Y-52400D01*
Y-52934D01*
X-116550Y-53467D01*
X-116670Y-53934D01*
X-116850Y-54334D01*
X-117060Y-54600D01*
X-117300Y-54667D01*
G01X-115390D02*
Y-50667D01*
X-114010Y-54667D01*
Y-50667D01*
G01X-108840Y-51000D02*
X-109020Y-50800D01*
X-109230Y-50667D01*
X-109470D01*
X-109740Y-50867D01*
X-109950Y-51200D01*
X-110100Y-51600D01*
X-110220Y-52267D01*
X-110250Y-52867D01*
X-110190Y-53467D01*
X-110100Y-53867D01*
X-109920Y-54267D01*
X-109710Y-54534D01*
X-109500Y-54667D01*
X-109290D01*
X-109080Y-54534D01*
X-108900Y-54334D01*
X-108750Y-54067D01*
G01X-107530Y-54667D02*
Y-50667D01*
G01X-106270D02*
Y-54667D01*
G01Y-52667D02*
X-107530D01*
G01X-105050Y-54667D02*
X-104300Y-50667D01*
X-103550Y-54667D01*
G01X-103820Y-53267D02*
X-104780D01*
G01X-102300Y-54667D02*
Y-50667D01*
X-101550D01*
X-101310Y-50867D01*
X-101160Y-51134D01*
X-101100Y-51667D01*
X-101160Y-52200D01*
X-101340Y-52534D01*
X-101550Y-52734D01*
X-102300D01*
G01X-101550D02*
X-101100Y-54667D01*
G01X-99100Y-50667D02*
Y-54667D01*
G01X-99790Y-50667D02*
X-98410D01*
G01X-166300Y-56000D02*
X-164500D01*
G01X-163700D02*
X-161900D01*
G01X-161100D02*
X-159300D01*
G01X-158500D02*
X-156700D01*
G01X-155900D02*
X-154100D01*
G01X-153300D02*
X-151500D01*
G01X-150700D02*
X-148900D01*
G01X-148100D02*
X-146300D01*
G01X-145500D02*
X-143700D01*
G01X-142900D02*
X-141100D01*
G01X-140300D02*
X-138500D01*
G01X-137700D02*
X-135900D01*
G01X-135100D02*
X-133300D01*
G01X-132500D02*
X-130700D01*
G01X-129900D02*
X-128100D01*
G01X-127300D02*
X-125500D01*
G01X-124700D02*
X-122900D01*
G01X-122100D02*
X-120300D01*
G01X-119500D02*
X-117700D01*
G01X-116900D02*
X-115100D01*
G01X-114300D02*
X-112500D01*
G01X-111700D02*
X-109900D01*
G01X-109100D02*
X-107300D01*
G01X-106500D02*
X-104700D01*
G01X-103900D02*
X-102100D01*
G01X-101300D02*
X-99500D01*
G01X-98700D02*
X-96900D01*
G01X-158900Y-55167D02*
Y-59167D01*
G01X-159590Y-55167D02*
X-158210D01*
G01X-156300Y-59167D02*
X-156540Y-59100D01*
X-156750Y-58834D01*
X-156930Y-58434D01*
X-157050Y-57967D01*
X-157110Y-57434D01*
Y-56900D01*
X-157050Y-56367D01*
X-156930Y-55900D01*
X-156750Y-55500D01*
X-156540Y-55234D01*
X-156300Y-55167D01*
X-156060Y-55234D01*
X-155850Y-55500D01*
X-155670Y-55900D01*
X-155550Y-56367D01*
X-155490Y-56900D01*
Y-57434D01*
X-155550Y-57967D01*
X-155670Y-58434D01*
X-155850Y-58834D01*
X-156060Y-59100D01*
X-156300Y-59167D01*
G01X-153700Y-55167D02*
Y-59167D01*
G01X-154390Y-55167D02*
X-153010D01*
G01X-151850Y-59167D02*
X-151100Y-55167D01*
X-150350Y-59167D01*
G01X-150620Y-57767D02*
X-151580D01*
G01X-149100Y-55167D02*
Y-59167D01*
X-147900D01*
G01X-143300Y-55167D02*
Y-59167D01*
G01X-143990Y-55167D02*
X-142610D01*
G01X-141330Y-59167D02*
Y-55167D01*
G01X-140070D02*
Y-59167D01*
G01Y-57167D02*
X-141330D01*
G01X-138460Y-55167D02*
X-137740D01*
G01X-138100D02*
Y-59167D01*
G01X-138460D02*
X-137740D01*
G01X-134840Y-55500D02*
X-135020Y-55300D01*
X-135230Y-55167D01*
X-135470D01*
X-135740Y-55367D01*
X-135950Y-55700D01*
X-136100Y-56100D01*
X-136220Y-56767D01*
X-136250Y-57367D01*
X-136190Y-57967D01*
X-136100Y-58367D01*
X-135920Y-58767D01*
X-135710Y-59034D01*
X-135500Y-59167D01*
X-135290D01*
X-135080Y-59034D01*
X-134900Y-58834D01*
X-134750Y-58567D01*
G01X-133560Y-59167D02*
Y-55167D01*
G01X-132420D02*
X-133560Y-57634D01*
G01X-132240Y-59167D02*
X-133050Y-56500D01*
G01X-130990Y-59167D02*
Y-55167D01*
X-129610Y-59167D01*
Y-55167D01*
G01X-127100Y-59167D02*
X-128300D01*
Y-55167D01*
X-127100D01*
G01X-127580Y-57100D02*
X-128300D01*
G01X-125730Y-58634D02*
X-125490Y-58967D01*
X-125220Y-59167D01*
X-124980D01*
X-124740Y-58967D01*
X-124560Y-58634D01*
X-124470Y-58167D01*
X-124530Y-57700D01*
X-124680Y-57300D01*
X-124950Y-57034D01*
X-125310Y-56900D01*
X-125520Y-56634D01*
X-125610Y-56167D01*
X-125550Y-55700D01*
X-125400Y-55367D01*
X-125190Y-55167D01*
X-124980D01*
X-124770Y-55300D01*
X-124590Y-55634D01*
G01X-123130Y-58634D02*
X-122890Y-58967D01*
X-122620Y-59167D01*
X-122380D01*
X-122140Y-58967D01*
X-121960Y-58634D01*
X-121870Y-58167D01*
X-121930Y-57700D01*
X-122080Y-57300D01*
X-122350Y-57034D01*
X-122710Y-56900D01*
X-122920Y-56634D01*
X-123010Y-56167D01*
X-122950Y-55700D01*
X-122800Y-55367D01*
X-122590Y-55167D01*
X-122380D01*
X-122170Y-55300D01*
X-121990Y-55634D01*
G01X-117870Y-57500D02*
X-117660Y-57034D01*
X-117480Y-56767D01*
X-117240Y-56634D01*
X-117030Y-56767D01*
X-116880Y-57034D01*
X-116760Y-57434D01*
X-116730Y-57900D01*
X-116760Y-58300D01*
X-116880Y-58700D01*
X-117060Y-59034D01*
X-117270Y-59167D01*
X-117510Y-59034D01*
X-117720Y-58634D01*
X-117840Y-58034D01*
X-117870Y-57367D01*
X-117810Y-56500D01*
X-117720Y-56034D01*
X-117570Y-55567D01*
X-117360Y-55234D01*
X-117150Y-55167D01*
X-116940Y-55300D01*
X-116790Y-55634D01*
G01X-115360Y-58367D02*
X-115180Y-58834D01*
X-114940Y-59100D01*
X-114670Y-59167D01*
X-114430Y-59100D01*
X-114190Y-58767D01*
X-114040Y-58367D01*
X-114010Y-57967D01*
X-114070Y-57500D01*
X-114280Y-57167D01*
X-114490Y-57034D01*
X-114760D01*
G01X-114490D02*
X-114310Y-56834D01*
X-114160Y-56500D01*
X-114100Y-56100D01*
X-114160Y-55700D01*
X-114310Y-55367D01*
X-114580Y-55167D01*
X-114850Y-55234D01*
X-115120Y-55500D01*
G01X-110280Y-59167D02*
Y-55167D01*
X-109500Y-58500D01*
X-108720Y-55167D01*
Y-59167D01*
G01X-107260Y-55167D02*
X-106540D01*
G01X-106900D02*
Y-59167D01*
G01X-107260D02*
X-106540D01*
G01X-104900Y-55167D02*
Y-59167D01*
X-103700D01*
G01X-98560Y-48967D02*
X-97240Y-46034D01*
G01X-97900Y-45501D02*
Y-49501D01*
G01X-97240Y-48967D02*
X-98560Y-46034D01*
G01X-98800Y-47501D02*
X-97000D01*
G01X-90730Y-48301D02*
X-90490Y-48634D01*
X-90220Y-48834D01*
X-89980D01*
X-89740Y-48634D01*
X-89560Y-48301D01*
X-89470Y-47834D01*
X-89530Y-47367D01*
X-89680Y-46967D01*
X-89950Y-46701D01*
X-90310Y-46567D01*
X-90520Y-46301D01*
X-90610Y-45834D01*
X-90550Y-45367D01*
X-90400Y-45034D01*
X-90190Y-44834D01*
X-89980D01*
X-89770Y-44967D01*
X-89590Y-45301D01*
G01X-88160Y-44834D02*
Y-47701D01*
X-88040Y-48301D01*
X-87800Y-48701D01*
X-87500Y-48834D01*
X-87200Y-48701D01*
X-86960Y-48301D01*
X-86840Y-47701D01*
Y-44834D01*
G01X-85500Y-48834D02*
Y-44834D01*
X-84750D01*
X-84510Y-45034D01*
X-84360Y-45301D01*
X-84300Y-45834D01*
X-84360Y-46367D01*
X-84540Y-46701D01*
X-84750Y-46901D01*
X-85500D01*
G01X-84750D02*
X-84300Y-48834D01*
G01X-82870D02*
Y-44834D01*
X-81730D01*
G01X-82150Y-46767D02*
X-82870D01*
G01X-80450Y-48834D02*
X-79700Y-44834D01*
X-78950Y-48834D01*
G01X-79220Y-47434D02*
X-80180D01*
G01X-76440Y-45167D02*
X-76620Y-44967D01*
X-76830Y-44834D01*
X-77070D01*
X-77340Y-45034D01*
X-77550Y-45367D01*
X-77700Y-45767D01*
X-77820Y-46434D01*
X-77850Y-47034D01*
X-77790Y-47634D01*
X-77700Y-48034D01*
X-77520Y-48434D01*
X-77310Y-48701D01*
X-77100Y-48834D01*
X-76890D01*
X-76680Y-48701D01*
X-76500Y-48501D01*
X-76350Y-48234D01*
G01X-73900Y-48834D02*
X-75100D01*
Y-44834D01*
X-73900D01*
G01X-74380Y-46767D02*
X-75100D01*
G01X-103700Y-19101D02*
Y-23101D01*
X-102500D01*
G01X-101070Y-19768D02*
X-100890Y-19368D01*
X-100680Y-19168D01*
X-100440Y-19101D01*
X-100140Y-19234D01*
X-99930Y-19568D01*
X-99870Y-19968D01*
X-99900Y-20368D01*
X-100020Y-20701D01*
X-100620Y-21368D01*
X-100890Y-21834D01*
X-101070Y-22501D01*
X-101130Y-23101D01*
X-99870D01*
G01X-95060Y-20968D02*
X-94940Y-20768D01*
X-94850Y-20434D01*
X-94790Y-19968D01*
X-94850Y-19568D01*
X-94970Y-19301D01*
X-95180Y-19101D01*
X-95990D01*
Y-23101D01*
X-95000D01*
X-94790Y-22834D01*
X-94670Y-22434D01*
X-94610Y-21968D01*
X-94670Y-21501D01*
X-94850Y-21101D01*
X-95060Y-20968D01*
X-95990D01*
G01X-92700Y-23101D02*
X-92940Y-23034D01*
X-93150Y-22768D01*
X-93330Y-22368D01*
X-93450Y-21901D01*
X-93510Y-21368D01*
Y-20834D01*
X-93450Y-20301D01*
X-93330Y-19834D01*
X-93150Y-19434D01*
X-92940Y-19168D01*
X-92700Y-19101D01*
X-92460Y-19168D01*
X-92250Y-19434D01*
X-92070Y-19834D01*
X-91950Y-20301D01*
X-91890Y-20834D01*
Y-21368D01*
X-91950Y-21901D01*
X-92070Y-22368D01*
X-92250Y-22768D01*
X-92460Y-23034D01*
X-92700Y-23101D01*
G01X-90100Y-19101D02*
Y-23101D01*
G01X-90790Y-19101D02*
X-89410D01*
G01X-87500D02*
Y-23101D01*
G01X-88190Y-19101D02*
X-86810D01*
G01X-84900Y-23101D02*
X-85140Y-23034D01*
X-85350Y-22768D01*
X-85530Y-22368D01*
X-85650Y-21901D01*
X-85710Y-21368D01*
Y-20834D01*
X-85650Y-20301D01*
X-85530Y-19834D01*
X-85350Y-19434D01*
X-85140Y-19168D01*
X-84900Y-19101D01*
X-84660Y-19168D01*
X-84450Y-19434D01*
X-84270Y-19834D01*
X-84150Y-20301D01*
X-84090Y-20834D01*
Y-21368D01*
X-84150Y-21901D01*
X-84270Y-22368D01*
X-84450Y-22768D01*
X-84660Y-23034D01*
X-84900Y-23101D01*
G01X-83080D02*
Y-19101D01*
X-82300Y-22434D01*
X-81520Y-19101D01*
Y-23101D01*
G01X-76440Y-19434D02*
X-76620Y-19234D01*
X-76830Y-19101D01*
X-77070D01*
X-77340Y-19301D01*
X-77550Y-19634D01*
X-77700Y-20034D01*
X-77820Y-20701D01*
X-77850Y-21301D01*
X-77790Y-21901D01*
X-77700Y-22301D01*
X-77520Y-22701D01*
X-77310Y-22968D01*
X-77100Y-23101D01*
X-76890D01*
X-76680Y-22968D01*
X-76500Y-22768D01*
X-76350Y-22501D01*
G01X-74500Y-23101D02*
X-74740Y-23034D01*
X-74950Y-22768D01*
X-75130Y-22368D01*
X-75250Y-21901D01*
X-75310Y-21368D01*
Y-20834D01*
X-75250Y-20301D01*
X-75130Y-19834D01*
X-74950Y-19434D01*
X-74740Y-19168D01*
X-74500Y-19101D01*
X-74260Y-19168D01*
X-74050Y-19434D01*
X-73870Y-19834D01*
X-73750Y-20301D01*
X-73690Y-20834D01*
Y-21368D01*
X-73750Y-21901D01*
X-73870Y-22368D01*
X-74050Y-22768D01*
X-74260Y-23034D01*
X-74500Y-23101D01*
G01X-72590D02*
Y-19101D01*
X-71210Y-23101D01*
Y-19101D01*
G01X-69960Y-23101D02*
Y-19101D01*
X-69360D01*
X-69120Y-19301D01*
X-68940Y-19568D01*
X-68790Y-19968D01*
X-68670Y-20434D01*
X-68640Y-21101D01*
X-68670Y-21768D01*
X-68790Y-22234D01*
X-68940Y-22634D01*
X-69120Y-22901D01*
X-69360Y-23101D01*
X-69960D01*
G01X-67360Y-19101D02*
Y-21968D01*
X-67240Y-22568D01*
X-67000Y-22968D01*
X-66700Y-23101D01*
X-66400Y-22968D01*
X-66160Y-22568D01*
X-66040Y-21968D01*
Y-19101D01*
G01X-63440Y-19434D02*
X-63620Y-19234D01*
X-63830Y-19101D01*
X-64070D01*
X-64340Y-19301D01*
X-64550Y-19634D01*
X-64700Y-20034D01*
X-64820Y-20701D01*
X-64850Y-21301D01*
X-64790Y-21901D01*
X-64700Y-22301D01*
X-64520Y-22701D01*
X-64310Y-22968D01*
X-64100Y-23101D01*
X-63890D01*
X-63680Y-22968D01*
X-63500Y-22768D01*
X-63350Y-22501D01*
G01X-61500Y-19101D02*
Y-23101D01*
G01X-62190Y-19101D02*
X-60810D01*
G01X-58900Y-23101D02*
X-59140Y-23034D01*
X-59350Y-22768D01*
X-59530Y-22368D01*
X-59650Y-21901D01*
X-59710Y-21368D01*
Y-20834D01*
X-59650Y-20301D01*
X-59530Y-19834D01*
X-59350Y-19434D01*
X-59140Y-19168D01*
X-58900Y-19101D01*
X-58660Y-19168D01*
X-58450Y-19434D01*
X-58270Y-19834D01*
X-58150Y-20301D01*
X-58090Y-20834D01*
Y-21368D01*
X-58150Y-21901D01*
X-58270Y-22368D01*
X-58450Y-22768D01*
X-58660Y-23034D01*
X-58900Y-23101D01*
G01X-56900D02*
Y-19101D01*
X-56150D01*
X-55910Y-19301D01*
X-55760Y-19568D01*
X-55700Y-20101D01*
X-55760Y-20634D01*
X-55940Y-20968D01*
X-56150Y-21168D01*
X-56900D01*
G01X-56150D02*
X-55700Y-23101D01*
G01X-98560Y55166D02*
X-97240Y58099D01*
G01X-97900Y58632D02*
Y54632D01*
G01X-97240Y55166D02*
X-98560Y58099D01*
G01X-98800Y56632D02*
X-97000D01*
G01X-90760Y55299D02*
Y59299D01*
X-90160D01*
X-89920Y59099D01*
X-89740Y58832D01*
X-89590Y58432D01*
X-89470Y57966D01*
X-89440Y57299D01*
X-89470Y56632D01*
X-89590Y56166D01*
X-89740Y55766D01*
X-89920Y55499D01*
X-90160Y55299D01*
X-90760D01*
G01X-87860Y59299D02*
X-87140D01*
G01X-87500D02*
Y55299D01*
G01X-87860D02*
X-87140D01*
G01X-84300D02*
X-85500D01*
Y59299D01*
X-84300D01*
G01X-84780Y57366D02*
X-85500D01*
G01X-82900Y59299D02*
Y55299D01*
X-81700D01*
G01X-79100D02*
X-80300D01*
Y59299D01*
X-79100D01*
G01X-79580Y57366D02*
X-80300D01*
G01X-76440Y58966D02*
X-76620Y59166D01*
X-76830Y59299D01*
X-77070D01*
X-77340Y59099D01*
X-77550Y58766D01*
X-77700Y58366D01*
X-77820Y57699D01*
X-77850Y57099D01*
X-77790Y56499D01*
X-77700Y56099D01*
X-77520Y55699D01*
X-77310Y55432D01*
X-77100Y55299D01*
X-76890D01*
X-76680Y55432D01*
X-76500Y55632D01*
X-76350Y55899D01*
G01X-74500Y59299D02*
Y55299D01*
G01X-75190Y59299D02*
X-73810D01*
G01X-72500Y55299D02*
Y59299D01*
X-71750D01*
X-71510Y59099D01*
X-71360Y58832D01*
X-71300Y58299D01*
X-71360Y57766D01*
X-71540Y57432D01*
X-71750Y57232D01*
X-72500D01*
G01X-71750D02*
X-71300Y55299D01*
G01X-69660Y59299D02*
X-68940D01*
G01X-69300D02*
Y55299D01*
G01X-69660D02*
X-68940D01*
G01X-66040Y58966D02*
X-66220Y59166D01*
X-66430Y59299D01*
X-66670D01*
X-66940Y59099D01*
X-67150Y58766D01*
X-67300Y58366D01*
X-67420Y57699D01*
X-67450Y57099D01*
X-67390Y56499D01*
X-67300Y56099D01*
X-67120Y55699D01*
X-66910Y55432D01*
X-66700Y55299D01*
X-66490D01*
X-66280Y55432D01*
X-66100Y55632D01*
X-65950Y55899D01*
G01X-103700Y137699D02*
Y133699D01*
X-102500D01*
G01X-100500D02*
Y137699D01*
X-100860Y136899D01*
G01Y133699D02*
X-100140D01*
G01X-95300Y137699D02*
Y133699D01*
G01X-95990Y137699D02*
X-94610D01*
G01X-92700Y133699D02*
X-92940Y133766D01*
X-93150Y134032D01*
X-93330Y134432D01*
X-93450Y134899D01*
X-93510Y135432D01*
Y135966D01*
X-93450Y136499D01*
X-93330Y136966D01*
X-93150Y137366D01*
X-92940Y137632D01*
X-92700Y137699D01*
X-92460Y137632D01*
X-92250Y137366D01*
X-92070Y136966D01*
X-91950Y136499D01*
X-91890Y135966D01*
Y135432D01*
X-91950Y134899D01*
X-92070Y134432D01*
X-92250Y134032D01*
X-92460Y133766D01*
X-92700Y133699D01*
G01X-90700D02*
Y137699D01*
X-89980D01*
X-89740Y137499D01*
X-89560Y137032D01*
X-89500Y136499D01*
X-89560Y135966D01*
X-89710Y135566D01*
X-89980Y135366D01*
X-90700D01*
G01X-84240Y137366D02*
X-84420Y137566D01*
X-84630Y137699D01*
X-84870D01*
X-85140Y137499D01*
X-85350Y137166D01*
X-85500Y136766D01*
X-85620Y136099D01*
X-85650Y135499D01*
X-85590Y134899D01*
X-85500Y134499D01*
X-85320Y134099D01*
X-85110Y133832D01*
X-84900Y133699D01*
X-84690D01*
X-84480Y133832D01*
X-84300Y134032D01*
X-84150Y134299D01*
G01X-82300Y133699D02*
X-82540Y133766D01*
X-82750Y134032D01*
X-82930Y134432D01*
X-83050Y134899D01*
X-83110Y135432D01*
Y135966D01*
X-83050Y136499D01*
X-82930Y136966D01*
X-82750Y137366D01*
X-82540Y137632D01*
X-82300Y137699D01*
X-82060Y137632D01*
X-81850Y137366D01*
X-81670Y136966D01*
X-81550Y136499D01*
X-81490Y135966D01*
Y135432D01*
X-81550Y134899D01*
X-81670Y134432D01*
X-81850Y134032D01*
X-82060Y133766D01*
X-82300Y133699D01*
G01X-80390D02*
Y137699D01*
X-79010Y133699D01*
Y137699D01*
G01X-77760Y133699D02*
Y137699D01*
X-77160D01*
X-76920Y137499D01*
X-76740Y137232D01*
X-76590Y136832D01*
X-76470Y136366D01*
X-76440Y135699D01*
X-76470Y135032D01*
X-76590Y134566D01*
X-76740Y134166D01*
X-76920Y133899D01*
X-77160Y133699D01*
X-77760D01*
G01X-75160Y137699D02*
Y134832D01*
X-75040Y134232D01*
X-74800Y133832D01*
X-74500Y133699D01*
X-74200Y133832D01*
X-73960Y134232D01*
X-73840Y134832D01*
Y137699D01*
G01X-71240Y137366D02*
X-71420Y137566D01*
X-71630Y137699D01*
X-71870D01*
X-72140Y137499D01*
X-72350Y137166D01*
X-72500Y136766D01*
X-72620Y136099D01*
X-72650Y135499D01*
X-72590Y134899D01*
X-72500Y134499D01*
X-72320Y134099D01*
X-72110Y133832D01*
X-71900Y133699D01*
X-71690D01*
X-71480Y133832D01*
X-71300Y134032D01*
X-71150Y134299D01*
G01X-69300Y137699D02*
Y133699D01*
G01X-69990Y137699D02*
X-68610D01*
G01X-66700Y133699D02*
X-66940Y133766D01*
X-67150Y134032D01*
X-67330Y134432D01*
X-67450Y134899D01*
X-67510Y135432D01*
Y135966D01*
X-67450Y136499D01*
X-67330Y136966D01*
X-67150Y137366D01*
X-66940Y137632D01*
X-66700Y137699D01*
X-66460Y137632D01*
X-66250Y137366D01*
X-66070Y136966D01*
X-65950Y136499D01*
X-65890Y135966D01*
Y135432D01*
X-65950Y134899D01*
X-66070Y134432D01*
X-66250Y134032D01*
X-66460Y133766D01*
X-66700Y133699D01*
G01X-64700D02*
Y137699D01*
X-63950D01*
X-63710Y137499D01*
X-63560Y137232D01*
X-63500Y136699D01*
X-63560Y136166D01*
X-63740Y135832D01*
X-63950Y135632D01*
X-64700D01*
G01X-63950D02*
X-63500Y133699D01*
G01X-98560Y156799D02*
X-97240Y159732D01*
G01X-97900Y160265D02*
Y156265D01*
G01X-97240Y156799D02*
X-98560Y159732D01*
G01X-98800Y158265D02*
X-97000D01*
G01X-90730Y157465D02*
X-90490Y157132D01*
X-90220Y156932D01*
X-89980D01*
X-89740Y157132D01*
X-89560Y157465D01*
X-89470Y157932D01*
X-89530Y158399D01*
X-89680Y158799D01*
X-89950Y159065D01*
X-90310Y159199D01*
X-90520Y159465D01*
X-90610Y159932D01*
X-90550Y160399D01*
X-90400Y160732D01*
X-90190Y160932D01*
X-89980D01*
X-89770Y160799D01*
X-89590Y160465D01*
G01X-88160Y160932D02*
Y158065D01*
X-88040Y157465D01*
X-87800Y157065D01*
X-87500Y156932D01*
X-87200Y157065D01*
X-86960Y157465D01*
X-86840Y158065D01*
Y160932D01*
G01X-85500Y156932D02*
Y160932D01*
X-84750D01*
X-84510Y160732D01*
X-84360Y160465D01*
X-84300Y159932D01*
X-84360Y159399D01*
X-84540Y159065D01*
X-84750Y158865D01*
X-85500D01*
G01X-84750D02*
X-84300Y156932D01*
G01X-82870D02*
Y160932D01*
X-81730D01*
G01X-82150Y158999D02*
X-82870D01*
G01X-80450Y156932D02*
X-79700Y160932D01*
X-78950Y156932D01*
G01X-79220Y158332D02*
X-80180D01*
G01X-76440Y160599D02*
X-76620Y160799D01*
X-76830Y160932D01*
X-77070D01*
X-77340Y160732D01*
X-77550Y160399D01*
X-77700Y159999D01*
X-77820Y159332D01*
X-77850Y158732D01*
X-77790Y158132D01*
X-77700Y157732D01*
X-77520Y157332D01*
X-77310Y157065D01*
X-77100Y156932D01*
X-76890D01*
X-76680Y157065D01*
X-76500Y157265D01*
X-76350Y157532D01*
G01X-73900Y156932D02*
X-75100D01*
Y160932D01*
X-73900D01*
G01X-74380Y158999D02*
X-75100D01*
M02*
